<?xml version="1.0" encoding="utf-8"?>
<!-- Generator: Adobe Illustrator 17.0.0, SVG Export Plug-In . SVG Version: 6.00 Build 0)  -->
<!DOCTYPE svg PUBLIC "-//W3C//DTD SVG 1.1//EN" "http://www.w3.org/Graphics/SVG/1.1/DTD/svg11.dtd">
<svg version="1.1" id="Layer_1" xmlns="http://www.w3.org/2000/svg" xmlns:xlink="http://www.w3.org/1999/xlink" x="0px" y="0px"
	 width="60px" height="60px" viewBox="0 0 60 60" enable-background="new 0 0 60 60" xml:space="preserve">
<g>
	<g>
		<path fill="#4D4D4D" d="M7.788,46.237c0-2.116,0.138-4.215,0.417-6.296c0.277-2.081,0.52-4.162,0.728-6.244
			c0-0.105,0.017-0.344,0.052-0.715c0.034-0.37,0.078-0.767,0.13-1.19c0.052-0.423,0.104-0.82,0.156-1.191
			c0.052-0.37,0.078-0.608,0.078-0.714v-0.212l2.185-16.509c-0.07-0.706,0.043-1.332,0.338-1.878c0.294-0.547,0.841-0.82,1.639-0.82
			c0.867-0.106,1.586,0.009,2.159,0.344c0.572,0.336,1.049,0.768,1.431,1.296c0.381,0.529,0.693,1.111,0.937,1.746
			c0.242,0.635,0.502,1.217,0.78,1.746c0.173,0.495,0.39,1.077,0.65,1.747c0.26,0.67,0.572,1.517,0.937,2.54
			c0.364,1.023,0.797,2.275,1.3,3.757c0.502,1.481,1.083,3.281,1.743,5.397l0.208,0.211c0.242-0.141,0.703-0.37,1.379-0.688
			c0.676-0.317,1.386-0.652,2.132-1.005c0.746-0.352,1.448-0.688,2.107-1.005c0.658-0.317,1.126-0.529,1.404-0.635
			c0.034-0.07,0.13-0.132,0.286-0.185c0.156-0.053,0.269-0.097,0.338-0.132h0.104c0.347,0,0.606,0.132,0.78,0.397
			c0.173,0.264,0.26,0.521,0.26,0.767c0,0.389-0.087,0.723-0.26,1.005c-0.174,0.283-0.373,0.538-0.599,0.767
			c-0.226,0.23-0.468,0.45-0.728,0.662c-0.261,0.211-0.461,0.441-0.599,0.688l-5.15,2.646c-0.139,0.177-0.208,0.317-0.208,0.423
			c0,0.283,0.147,0.724,0.442,1.323c0.294,0.601,0.528,1.076,0.702,1.429c0.104,0.212,0.277,0.601,0.52,1.164
			c0.242,0.564,0.502,1.146,0.78,1.746c0.277,0.601,0.546,1.173,0.807,1.72c0.26,0.547,0.442,0.926,0.546,1.138v0.158
			c0,1.271-0.624,1.905-1.873,1.905c-0.382,0-0.78-0.044-1.196-0.132c-0.417-0.088-0.729-0.345-0.937-0.768l-3.485-7.566H20.74
			c-1.318,1.023-2.723,2.028-4.213,3.016c-1.491,0.988-3.017,1.835-4.578,2.54c-0.243,1.27-0.39,2.558-0.442,3.862
			c-0.052,1.306-0.044,2.611,0.026,3.916c-0.278,0.389-0.555,0.68-0.833,0.873c-0.278,0.194-0.659,0.291-1.144,0.291
			c-0.486,0-0.851-0.114-1.093-0.344c-0.243-0.229-0.416-0.511-0.52-0.847c-0.104-0.335-0.156-0.696-0.156-1.085
			C7.788,46.908,7.788,46.555,7.788,46.237z M12.418,35.972c1.041-0.424,2.055-0.987,3.043-1.693
			c0.988-0.705,1.933-1.357,2.835-1.958c0.104-0.07,0.234-0.141,0.39-0.211c0.156-0.07,0.303-0.159,0.442-0.265
			c0.138-0.106,0.312-0.229,0.52-0.37v-0.423l-4.786-13.864l-0.208-0.211c-0.104,0.211-0.234,0.812-0.39,1.799
			c-0.156,0.988-0.33,2.267-0.52,3.836c-0.191,1.57-0.399,3.378-0.625,5.424c-0.226,2.046-0.46,4.233-0.702,6.561V35.972z"/>
		<path fill="#4D4D4D" d="M46.281,34.808c-0.312,0.564-0.668,1.243-1.066,2.037s-0.824,1.641-1.274,2.54
			c-0.451,0.899-0.945,1.799-1.482,2.698c-0.538,0.899-1.092,1.72-1.664,2.461c-0.572,0.74-1.171,1.367-1.795,1.878
			c-0.624,0.512-1.267,0.82-1.925,0.926c-0.278,0-0.59-0.026-0.937-0.079s-0.693-0.141-1.04-0.265
			c-0.347-0.123-0.633-0.299-0.858-0.529c-0.226-0.229-0.338-0.537-0.338-0.926c0.034-3.598,0.294-6.869,0.78-9.815
			c0.485-2.945,1.248-5.538,2.289-7.778c1.04-2.24,2.375-4.101,4.005-5.583c1.63-1.481,3.606-2.54,5.931-3.175
			c0.068,0,0.199-0.008,0.39-0.026c0.19-0.017,0.32-0.026,0.391-0.026c1.04-0.035,1.794,0.45,2.263,1.455
			c0.468,1.005,0.814,2.593,1.04,4.762s0.381,4.957,0.468,8.36c0.087,3.404,0.269,7.487,0.547,12.25
			c0.104,0.388,0.164,0.723,0.182,1.005c0.018,0.283,0.026,0.617,0.026,1.005c0,0.529-0.156,0.927-0.469,1.191
			c-0.312,0.265-0.711,0.396-1.196,0.396c-1.006,0-1.716-0.282-2.133-0.847c-0.416-0.563-0.693-1.323-0.832-2.275
			c0-0.034-0.026-0.317-0.078-0.847s-0.122-1.138-0.208-1.825c-0.087-0.688-0.165-1.384-0.234-2.09
			c-0.069-0.705-0.121-1.288-0.155-1.746v-0.212c-0.07-0.353-0.113-0.794-0.131-1.323s-0.061-1.04-0.13-1.534
			c-0.069-0.6-0.122-1.199-0.156-1.799L46.281,34.808z M45.138,24.331c-0.937,0.706-1.856,1.659-2.758,2.857
			c-0.901,1.2-1.543,2.364-1.925,3.492c-0.174,0.529-0.363,1.252-0.571,2.169c-0.209,0.918-0.391,1.825-0.547,2.725
			c-0.156,0.9-0.286,1.729-0.39,2.487c-0.104,0.759-0.156,1.243-0.156,1.455c0.034,0,0.078-0.034,0.13-0.105
			c0.052-0.07,0.095-0.123,0.13-0.159c2.15-2.116,3.668-4.399,4.552-6.852C44.488,29.949,44.998,27.259,45.138,24.331z"/>
	</g>
</g>
</svg>
