<?xml version="1.0" encoding="utf-8"?>
<!-- Generator: Adobe Illustrator 17.0.0, SVG Export Plug-In . SVG Version: 6.00 Build 0)  -->
<!DOCTYPE svg PUBLIC "-//W3C//DTD SVG 1.1//EN" "http://www.w3.org/Graphics/SVG/1.1/DTD/svg11.dtd">
<svg version="1.1" id="Layer_1" xmlns="http://www.w3.org/2000/svg" xmlns:xlink="http://www.w3.org/1999/xlink" x="0px" y="0px"
	 width="60px" height="60px" viewBox="0 0 60 60" enable-background="new 0 0 60 60" xml:space="preserve">
<path fill="#4D4D4D" d="M29.577,0c4.007,0.035,7.537,0.852,10.831,2.527c8.753,4.452,12.171,13.208,8.801,22.887
	c-0.874,2.51-2.23,4.869-3.513,7.216c-0.962,1.762-2.136,3.411-3.26,5.081c-1.925,2.86-3.168,5.902-2.753,9.443
	c0.066,0.568,0.055,1.154,0.002,1.725c-0.164,1.772,0.264,4.072-0.686,5.196c-1.801,2.128-4.298,3.744-6.704,5.255
	c-1.609,1.01-3.663,0.828-5.227-0.218c-2.213-1.48-4.253-3.24-6.243-5.018c-0.466-0.416-0.579-1.381-0.608-2.104
	c-0.081-2.011-0.133-4.033-0.01-6.04c0.161-2.614-0.61-4.913-1.974-7.068c-1.486-2.348-3.044-4.653-4.471-7.037
	c-2.185-3.648-3.793-7.502-4.166-11.818C8.982,12.92,11.838,7.538,17.647,3.646C21.325,1.181,25.477,0.133,29.577,0z M37.236,44.178
	c0.118-3.385,1.5-5.995,3.118-8.508c1.037-1.61,2.119-3.191,3.155-4.801c2.042-3.173,3.484-6.577,4.059-10.338
	c1.039-6.793-1.826-12.349-8.024-15.336c-6.273-3.023-12.569-2.965-18.806,0.089c-5.844,2.862-8.553,8.121-7.9,14.611
	c0.546,5.427,2.897,10.058,5.843,14.48c2.012,3.019,4.001,6.047,4.46,9.725c1.37,0,2.552,0,3.907,0
	c-1.065-5.363-2.083-10.492-3.066-15.442c-1.194-0.457-2.28-0.586-2.909-1.19c-0.673-0.647-1.209-1.732-1.239-2.645
	c-0.019-0.574,0.9-1.452,1.582-1.713c1.067-0.409,2.069,0.138,2.686,1.134c0.439,0.709,0.791,1.472,1.325,2.481
	c1.215-0.696,2.298-1.316,3.423-1.96c-2.181-2.804-2.452-4.799-1.026-6.155c1.124-1.069,3.035-1.189,4.187-0.111
	c0.523,0.489,1.175,1.337,1.076,1.899c-0.266,1.506-0.907,2.945-1.499,4.708c0.808,0.427,1.868,0.986,3.074,1.624
	c0.426-0.891,0.7-1.588,1.076-2.226c0.633-1.072,1.6-1.842,2.839-1.397c0.668,0.24,1.366,1.035,1.59,1.728
	c0.402,1.244-0.32,2.245-1.426,2.825c-0.819,0.43-1.734,0.679-2.516,0.974c-1.446,4.536-2.941,13.339-2.64,15.543
	C34.696,44.178,35.812,44.178,37.236,44.178z M25.239,28.46c0.841,5.322,1.667,10.553,2.486,15.741c1.683,0,3.007,0,4.629,0
	c0.806-5.295,1.604-10.534,2.392-15.708c-1.733-1.02-3.198-1.883-4.702-2.769C28.518,26.592,27.032,27.439,25.239,28.46z
	 M36.455,49.12c0.39-2.197-0.725-2.037-1.662-2.041c-3.138-0.015-6.276-0.026-9.414,0.002c-0.617,0.005-1.232,0.19-1.94,0.307
	c0.109,0.548,0.164,1.208,0.251,1.212C27.909,48.808,32.131,48.959,36.455,49.12z M23.683,52.626
	c3.034,0.58,10.941,0.46,13.288-0.336c-0.556-0.513-0.946-1.188-1.351-1.197c-3.704-0.083-7.412-0.079-11.118-0.034
	C23.435,51.071,23.336,51.782,23.683,52.626z M33.996,55.068c-2.866,0.047-5.142-0.202-7.742,0.19
	C29.185,57.873,30.719,57.863,33.996,55.068z M30.089,23.494c1.686-1.689,1.978-2.642,0.864-3.347
	c-0.474-0.3-1.491-0.286-1.942,0.034C27.981,20.912,28.389,22.013,30.089,23.494z M36.831,26.867
	c1.046-0.33,2.184-0.401,2.152-1.809c-0.006-0.26-0.469-0.73-0.717-0.728c-1.313,0.012-1.632,0.981-1.756,2.062
	C36.502,26.457,36.602,26.536,36.831,26.867z M23.499,26.799c-0.009-1.633-0.52-2.463-2.147-2.491
	C20.809,26.311,21.933,26.583,23.499,26.799z"/>
</svg>
